<svg class="artdeco-button__icon" width="24" height="24" viewBox="0 0 24 24" fill="none" xmlns="http://www.w3.org/2000/svg">
      <path d="M21 10H18.59L14.45 2.55002C13.92 1.59002 12.91 1 11.82 1C10.95 1 10.12 1.38001 9.55 2.04001C8.98 2.70001 8.72 3.57 8.84 4.44L9.35001 8H5.07001C3.38001 8 2 9.33002 2 10.96C2 11.54 2.18 12.1 2.5 12.58C2.18 13.05 2.00999 13.61 2.00999 14.19C2.00999 15.05 2.38999 15.85 3.03999 16.4C2.99999 16.58 2.98 16.77 2.98 16.95C2.98 18.23 3.81999 19.32 5.00999 19.73C5.33999 21.02 6.55 21.98 7.98 21.98L11.99 22H20.99C21.54 22 21.99 21.55 21.99 21V11C21.99 10.45 21.54 10 20.99 10H21ZM7.99001 19.98C7.40001 19.98 6.92 19.55 6.92 19.09C6.92 19.07 6.92999 18.99 6.92999 18.96C6.94999 18.69 6.85999 18.43 6.67999 18.23C6.49999 18.03 6.25 17.91 5.98 17.9C5.41 17.87 4.97 17.46 4.97 16.95C4.97 16.8 5.02 16.65 5.11 16.5C5.26 16.25 5.29 15.95 5.2 15.67C5.11 15.39 4.9 15.17 4.63 15.06C4.25 14.9 4 14.56 4 14.19C4 13.88 4.16 13.6 4.44 13.42C4.72 13.23 4.89 12.92 4.89 12.58C4.89 12.24 4.71999 11.93 4.42999 11.74C4.14999 11.56 3.99001 11.27 3.99001 10.96C3.99001 10.43 4.47 10 5.06 10H10.49C10.78 10 11.06 9.87 11.25 9.66C11.44 9.44 11.53 9.15002 11.48 8.86002L10.81 4.15002C10.77 3.86002 10.85 3.57001 11.05 3.35001C11.49 2.85001 12.37 2.94002 12.7 3.52002L17 11.26V20H12L7.99001 19.98ZM20 20H18V12H20V20Z" fill="currentColor"/>
    </svg>