<svg class="artdeco-button__icon" width="24" height="24" viewBox="0 0 24 24" fill="none" xmlns="http://www.w3.org/2000/svg">
    <path d="M14 2H10C5.59 2 2 5.59 2 10C2 14.07 5.06 17.44 9 17.94V21C9 21.37 9.2 21.71 9.53 21.88C9.68 21.96 9.84 22 10 22C10.19 22 10.38 21.94 10.55 21.84L18.23 16.79C20.59 15.31 22 12.78 22 10.01C22 5.60001 18.41 2.01001 14 2.01001V2ZM17.15 15.1L11 19.15V17C11 16.45 10.55 16 10 16C6.69 16 4 13.31 4 10C4 6.69 6.69 4 10 4H14C17.31 4 20 6.69 20 10C20 12.08 18.94 13.98 17.15 15.1ZM16 8.5C16 8.78 15.78 9 15.5 9H8.5C8.22 9 8 8.78 8 8.5C8 8.22 8.22 8 8.5 8H15.5C15.78 8 16 8.22 16 8.5ZM16 11.5C16 11.78 15.78 12 15.5 12H8.5C8.22 12 8 11.78 8 11.5C8 11.22 8.22 11 8.5 11H15.5C15.78 11 16 11.22 16 11.5Z" fill="currentColor"/>
  </svg>