<svg class="artdeco-button__icon" width="24" height="24" viewBox="0 0 24 24" fill="none" xmlns="http://www.w3.org/2000/svg">
    <g clip-path="url(#clip0_2232_11605)">
      <path d="M11 6V9C11 9.38 11.22 9.73 11.57 9.9C11.71 9.97 11.86 10 12 10C12.22 10 12.44 9.93 12.62 9.78L17.62 5.78C17.86 5.59 18 5.3 18 5C18 4.7 17.86 4.41 17.62 4.22L12.62 0.219997C12.32 -0.0200029 11.91 -0.0700029 11.56 0.0999971C11.21 0.269997 10.99 0.619997 10.99 0.999997V4H7.98999C5.22999 4 2.98999 6.24 2.98999 9V14C2.98999 14.55 3.43999 15 3.98999 15C4.53999 15 4.98999 14.55 4.98999 14V9C4.98999 7.35 6.33999 6 7.98999 6H10.99H11ZM13 3.08L15.4 5L13 6.92V3.08ZM20 9.01C19.45 9.01 19 9.46 19 10.01V15C19 16.65 17.65 18 16 18H13V15.01C13 14.63 12.78 14.28 12.43 14.11C12.08 13.94 11.67 13.99 11.37 14.23L6.36999 18.23C6.12999 18.42 5.98999 18.71 5.98999 19.01C5.98999 19.31 6.12999 19.6 6.36999 19.79L11.37 23.79C11.55 23.93 11.77 24.01 11.99 24.01C12.14 24.01 12.29 23.98 12.42 23.91C12.77 23.74 12.99 23.39 12.99 23.01V20H15.99C18.75 20 20.99 17.76 20.99 15V10.01C20.99 9.46 20.54 9.01 19.99 9.01H20ZM11 20.92L8.59999 19L11 17.08V20.92Z" fill="currentColor"/>
    </g>
  </svg>