<svg width="24" height="24" viewBox="0 0 24 24" fill="none" xmlns="http://www.w3.org/2000/svg">
      <path d="M22.71 11.3L14.12 2.70999C13.43 2.01999 12.39 1.80997 11.49 2.18997C10.58 2.56997 10 3.43998 10 4.41998V7.07998L9.69 7.17999C4.49 8.89999 1 13.73 1 19.18V20.98C1 21.41 1.26999 21.79 1.67999 21.93C2.08999 22.07 2.53999 21.93 2.79999 21.58L3.82001 20.23C5.28001 18.29 7.58 17.09 10 17V19.57C10 20.55 10.59 21.43 11.49 21.8C11.79 21.92 12.11 21.99 12.42 21.99C13.05 21.99 13.66 21.74 14.13 21.28L22.71 12.7C23.1 12.31 23.1 11.68 22.71 11.29V11.3ZM12.71 19.88C12.54 20.05 12.35 20.01 12.26 19.97C12.16 19.93 12 19.83 12 19.59V16.01C12 15.46 11.55 15.01 11 15.01H10.3C7.56999 15.01 4.95 16.13 3.06 18.06C3.5 13.94 6.31001 10.42 10.32 9.08996L11.31 8.75997C11.72 8.61997 12 8.23996 12 7.80996V4.41998C12 4.17998 12.16 4.07997 12.26 4.03997C12.36 3.99997 12.54 3.95997 12.71 4.12997L20.59 12.01L12.71 19.89V19.88Z" fill="currentColor"/>
    </svg>