<svg a11y-text="Open control menu" width="16" height="16" viewBox="0 0 16 16" fill="none" xmlns="http://www.w3.org/2000/svg">
    <path d="M3.25 8C3.25 8.69 2.69 9.25 2 9.25C1.31 9.25 0.75 8.69 0.75 8C0.75 7.31 1.31 6.75 2 6.75C2.69 6.75 3.25 7.31 3.25 8ZM14 6.75C13.31 6.75 12.75 7.31 12.75 8C12.75 8.69 13.31 9.25 14 9.25C14.69 9.25 15.25 8.69 15.25 8C15.25 7.31 14.69 6.75 14 6.75ZM8 6.75C7.31 6.75 6.75 7.31 6.75 8C6.75 8.69 7.31 9.25 8 9.25C8.69 9.25 9.25 8.69 9.25 8C9.25 7.31 8.69 6.75 8 6.75Z" fill="currentColor"/>
  </svg>